<svg width="30" height="30" viewBox="0 0 30 30" fill="none" xmlns="http://www.w3.org/2000/svg">
    <path fill-rule="evenodd" clip-rule="evenodd" d="M16.6421 1.96319C17.7781 0.955436 19.1674 0.276671 20.6605 0C20.7625 0.369145 20.7937 0.754227 20.7526 1.13497C20.6821 1.8565 20.5028 2.5632 20.2209 3.23108C19.9187 3.96036 19.4971 4.6342 18.9734 5.22495C18.4395 5.84499 17.7988 6.36443 17.0818 6.75869C16.3036 7.09842 15.4665 7.28253 14.6176 7.30061C14.6162 6.11283 14.8671 4.9383 15.3538 3.85481C15.6661 3.152 16.1026 2.51122 16.6421 1.96319ZM18.2577 7.24949C19.286 6.91171 20.3662 6.75937 21.4479 6.79959C22.3929 6.85595 23.3173 7.09923 24.1677 7.51534C25.1992 8.07429 26.1042 8.84009 26.8262 9.76483C26.2514 10.2291 25.7115 10.7349 25.2106 11.2781C23.5187 13.1355 23.038 15.7969 23.9734 18.1288C24.2955 18.9297 24.7519 19.6697 25.3231 20.317C25.9526 21.0608 26.778 21.6134 27.7055 21.9121C27.1342 23.6035 26.3177 25.202 25.2822 26.6564C24.6058 27.6838 23.7462 28.578 22.7464 29.2945C22.0875 29.7521 21.2987 29.9851 20.4969 29.9591C19.561 29.8448 18.6435 29.6112 17.7669 29.2638C16.9081 28.9534 16.0011 28.7976 15.0879 28.8037C14.1765 28.8899 13.2854 29.1247 12.4499 29.499C11.7311 29.817 10.9557 29.9874 10.1697 30C9.47814 29.9867 8.80448 29.7775 8.227 29.3967C7.51766 28.9373 6.88603 28.3678 6.35584 27.7096C5.77702 27.0013 5.25398 26.2493 4.79142 25.4601C3.89605 23.9704 3.18531 22.3772 2.67486 20.7157C2.27003 19.3606 2.04654 17.9578 2.01024 16.544C1.93439 14.7207 2.28083 12.9045 3.02251 11.2372C3.6474 9.86654 4.64696 8.70038 5.90594 7.87321C7.02146 7.18709 8.32026 6.85882 9.62782 6.93252C10.4564 6.98881 11.278 7.12232 12.0818 7.33129C12.9604 7.60464 13.8551 7.82319 14.7607 7.98568C15.2373 8.04081 15.7201 8.0026 16.182 7.87321C16.8875 7.70961 17.5726 7.46421 18.2577 7.24949Z" fill="white"></path>
</svg>
